<svg xmlns="http://www.w3.org/2000/svg" width="210" height="182" viewBox="0 0 210 182">
    <g fill="none" fill-rule="nonzero">
        <g fill="#C41230">
            <path d="M16.7 169.5c-3.4 0-6.4-1.2-8.6-3.5v16H.5v-28c0-8.5 6.3-15.4 15.2-15.4 8.9 0 15.1 7 15.1 15.5 0 8.4-6.3 15.4-14.1 15.4zm-1-23.9c-4.2 0-7.6 3.7-7.6 8.3 0 4.7 3.4 8.5 7.6 8.5 4.2 0 7.6-3.7 7.6-8.5 0-4.7-3.4-8.3-7.6-8.3zM35 136.1v-4.2c0-2.1 1.7-3.8 3.8-3.8 2.1 0 3.8 1.7 3.8 3.8v4.2H35zm7.6 32.8H35v-29.5h7.6v29.5zM62.1 169.6c-8.9 0-15.3-6.9-15.2-15.5 0-8.5 6.4-15.5 15.3-15.5 7.1 0 12.5 4 14.2 10.7h-8.1c-1-2-3.4-3.7-6.1-3.7-4.2 0-7.6 3.9-7.6 8.7 0 4.6 3.4 8.5 7.6 8.5 2.8 0 5.2-1.7 6.2-3.8h8.1c-1.9 6.6-7.3 10.6-14.4 10.6zM108.2 154.2c0 8.8-6.7 15.4-14.9 15.4s-14.9-6.6-14.8-15.5c0-8.8 6.7-15.5 14.9-15.5 8.1 0 14.8 6.8 14.8 15.6zm-7.6 0c0-5.1-3.3-8.7-7.3-8.7S86 149 86 154.2c0 5 3.3 8.4 7.3 8.4 4 .1 7.3-3.4 7.3-8.4zM131.1 169.7c-10.8 0-19.3-9.1-19.3-20.8 0-11.6 8.5-20.8 19.3-20.7 9 0 15.7 5.1 18.1 13.3H141c-1.8-3.6-5.3-6.3-9.9-6.3-6.5 0-11.7 6.3-11.7 13.8 0 7.6 5.1 13.9 11.7 13.9 4.5 0 8.1-2.8 9.9-6.4h8.1c-2.5 8-9.2 13.2-18 13.2zM169.7 136.3v32.8h-7.6v-32.8h-10.7v-7.1h28.9v7.1zM192.4 145.7h14.1v7.1h-14.1v16.3h-7.6V142c0-7.6 4.4-12.7 12.5-12.7h12.2v7.5h-12.1c-3.6 0-5 1.4-5 5v3.9z"/>
        </g>
        <path fill="#C39FCA" d="M82.3 45.1c0-3.4.5-6.5 1.6-9.2 1-2.8 2.5-5.1 4.5-7 2-1.9 4.4-3.4 7.2-4.5 2.8-1 6-1.6 9.6-1.6 3.7 0 7 .5 9.9 1.6 2.8 1.1 5.2 2.6 7 4.5l36 36c.7-3.5 1.1-7.1 1.1-10.7C159.2 24.3 135 .1 105.1.1 75.2.1 51 24.3 51 54.2c0 29.9 24.2 54.1 54.1 54.1h.1L82.4 85.5V45.1h-.1z"/>
        <path fill="#C41230" d="M98.3 50.1c.8.8 1.8 1.5 2.9 1.9 1.1.5 2.3.7 3.5.7 1.2 0 2.4-.2 3.4-.7 1.1-.5 2-1.1 2.8-1.9.8-.8 1.5-1.7 2-2.8.5-1.1.7-2.2.7-3.3 0-1.3-.2-2.5-.7-3.6-.5-1.1-1.1-2.1-1.9-3-.8-.9-1.8-1.5-2.9-2-1.1-.5-2.3-.8-3.5-.8-1.2 0-2.4.3-3.5.8s-2 1.2-2.9 2c-.8.8-1.5 1.8-2 2.9-.5 1.1-.7 2.2-.7 3.4 0 1.2.2 2.4.7 3.5.6 1.1 1.3 2.1 2.1 2.9zm23.8-21.2c-.1 0 0 0 0 0 1.8 1.9 3.2 4.2 4.2 6.8.9 2.6 1.4 5.3 1.4 8.3 0 3.3-.6 6.3-1.9 8.9-1.3 2.6-2.9 4.7-4.9 6.5-1.9 1.7-4.1 3.1-6.4 3.9-2.3.9-4.5 1.3-6.6 1.3-2.5 0-4.8-.4-6.8-1.2-2-.8-3.7-2-5-3.5v23.7l-13.7 2 22.8 22.8c26.2 0 48-18.7 53-43.4l-36.1-36.1z"/>
        <path fill="#FFF" d="M126.3 35.7c-.9-2.6-2.3-4.8-4.2-6.7-1.9-1.9-4.2-3.4-7-4.5s-6.1-1.6-9.9-1.6c-3.6 0-6.8.5-9.6 1.6-2.8 1-5.2 2.5-7.2 4.5-2 1.9-3.5 4.3-4.5 7-1 2.8-1.6 5.8-1.6 9.2v40.5l13.7-2V60c1.4 1.6 3 2.7 5 3.5 2 .8 4.3 1.2 6.8 1.2 2.1 0 4.3-.4 6.6-1.3s4.5-2.2 6.4-3.9c1.9-1.7 3.6-3.9 4.9-6.5 1.3-2.6 1.9-5.5 1.9-8.9.1-3.1-.4-5.8-1.3-8.4zm-13.4 11.6c-.5 1.1-1.1 2-2 2.8-.8.8-1.8 1.5-2.8 1.9-1.1.5-2.2.7-3.4.7-1.2 0-2.4-.2-3.5-.7-1.1-.5-2.1-1.1-2.9-1.9-.8-.8-1.5-1.8-2-2.9-.5-1.1-.7-2.3-.7-3.5 0-1.2.2-2.4.7-3.4.5-1.1 1.1-2 2-2.9.8-.8 1.8-1.5 2.9-2 1.1-.5 2.2-.8 3.5-.8 1.2 0 2.4.3 3.5.8s2.1 1.2 2.9 2c.8.8 1.4 1.8 1.9 3 .5 1.1.7 2.3.7 3.6-.1 1.1-.3 2.2-.8 3.3z"/>
    </g>
</svg>
