<svg xmlns="http://www.w3.org/2000/svg" width="45" height="45" viewBox="0 0 45 45">
    <g fill="none" fill-rule="nonzero">
        <path fill="#C39FCA" d="M12.922 18.62c0-1.404.206-2.684.66-3.799.413-1.156 1.033-2.105 1.858-2.89.826-.784 1.817-1.403 2.973-1.858 1.156-.412 2.477-.66 3.963-.66 1.528 0 2.89.206 4.087.66 1.156.455 2.147 1.074 2.89 1.858l14.863 14.863a22.59 22.59 0 0 0 .454-4.418C44.67 10.032 34.679.041 22.335.041 9.99.041 0 10.032 0 22.376 0 34.72 9.99 44.711 22.335 44.711h.041l-9.413-9.413V18.62h-.041z"/>
        <path fill="#C41230" d="M19.528 20.683c.33.33.743.62 1.197.785.454.206.95.289 1.445.289.495 0 .99-.083 1.403-.29a3.813 3.813 0 0 0 1.156-.784c.33-.33.62-.701.826-1.155.206-.455.289-.909.289-1.363 0-.537-.083-1.032-.289-1.486a4.842 4.842 0 0 0-.784-1.239c-.33-.371-.743-.619-1.198-.825a3.52 3.52 0 0 0-1.445-.33c-.495 0-.99.123-1.445.33-.454.206-.825.495-1.197.825-.33.33-.619.743-.825 1.198a3.292 3.292 0 0 0-.29 1.403c0 .496.083.991.29 1.445.247.454.536.867.867 1.197zm9.825-8.752c-.041 0 0 0 0 0 .743.785 1.321 1.734 1.734 2.808a10.29 10.29 0 0 1 .578 3.426c0 1.363-.248 2.601-.784 3.674a8.84 8.84 0 0 1-2.023 2.684c-.785.702-1.693 1.28-2.642 1.61a7.428 7.428 0 0 1-2.725.537c-1.032 0-1.982-.165-2.808-.496a5.331 5.331 0 0 1-2.064-1.445v9.785l-5.656.825 9.413 9.413c10.817 0 19.817-7.72 21.88-17.917L29.354 11.93z"/>
        <path fill="#FFF" d="M31.087 14.739a7.153 7.153 0 0 0-1.734-2.767c-.784-.784-1.734-1.403-2.89-1.857-1.156-.454-2.518-.66-4.087-.66-1.486 0-2.807.206-3.963.66a7.896 7.896 0 0 0-2.973 1.857c-.825.785-1.445 1.776-1.857 2.89a11.101 11.101 0 0 0-.661 3.799v16.72l5.656-.826v-9.784a5.206 5.206 0 0 0 2.064 1.445c.826.33 1.775.495 2.808.495.867 0 1.775-.165 2.724-.537a8.741 8.741 0 0 0 2.643-1.61 9.001 9.001 0 0 0 2.022-2.683c.537-1.074.785-2.27.785-3.675a9.413 9.413 0 0 0-.537-3.467zm-5.532 4.789c-.206.454-.454.825-.826 1.155-.33.33-.743.62-1.156.785a3.292 3.292 0 0 1-1.403.289c-.496 0-.991-.083-1.445-.29-.454-.206-.867-.453-1.197-.784-.33-.33-.62-.743-.826-1.197a3.478 3.478 0 0 1-.29-1.445c0-.495.083-.99.29-1.403a3.89 3.89 0 0 1 .826-1.198c.33-.33.743-.619 1.197-.825.454-.207.908-.33 1.445-.33.495 0 .99.123 1.445.33.454.206.867.495 1.197.825.33.33.578.743.784 1.239.207.454.29.95.29 1.486-.042.454-.125.908-.331 1.363z"/>
    </g>
</svg>
